<svg preserveAspectRatio="none" width="100%" height="100%" overflow="visible" style="display: block;" viewBox="0 0 46.8404 51.0814" fill="none" xmlns="http://www.w3.org/2000/svg">
<path id="Vector" d="M0.449936 3.08641C0.511236 3.08641 0.898943 5.11579 1.20094 7.16639C1.46214 8.94079 1.37434 8.953 1.57634 10.7364C1.74984 12.268 1.74733 12.2687 1.95183 13.7964C2.12273 15.0737 2.06322 16.3464 2.32732 16.3464C2.43862 16.3464 2.49234 15.3264 2.70274 15.3264C2.86774 15.3264 3.00183 15.6763 3.07823 16.0914C3.37723 17.7163 5.19862 3.4064 5.45372 3.4064C5.57412 3.4064 5.71462 1.8764 5.82912 1.8764C6.09012 1.8764 7.81184 17.0812 8.33482 17.4314C8.8578 17.7816 8.77554 13.0964 9.08574 13.0964C9.33874 13.0964 9.29143 14.8797 9.46123 16.6664C9.66693 18.8322 9.63732 18.835 9.83662 21.0014C10.0127 22.915 9.87014 24.8264 10.2121 24.8264C10.2455 24.8264 10.8801 24.8264 10.963 25.0814C11.3385 26.2357 11.0194 26.9173 11.3385 28.6514C11.3948 28.9573 11.7046 26.9917 12.0895 25.3364C12.2678 24.5692 12.2909 23.8064 12.4649 23.8064C12.6664 23.8064 12.6932 25.5914 12.8404 25.5914C13.0687 25.5914 13.0503 24.1916 13.2159 22.7864C13.4258 21.0041 13.3635 19.2164 13.5913 19.2164C13.7389 19.2164 13.836 20.3568 13.9668 21.5114C14.2115 23.6718 14.1365 23.6806 14.3423 25.8464C14.512 27.6331 14.5533 27.6292 14.7177 29.4164C14.9287 31.7092 14.8885 34.0064 15.0932 34.0064C15.264 34.0064 15.2024 30.1814 15.4687 30.1814C15.5778 30.1814 15.6219 30.9569 15.8441 31.7114C15.9974 32.2319 16.0905 32.7314 16.2196 32.7314C16.466 32.7314 16.3662 31.7016 16.5951 30.6914C16.7417 30.0441 16.7828 30.0539 16.9705 29.4164C17.1583 28.7789 17.2446 28.1414 17.346 28.1414C17.62 28.1414 17.5337 31.7114 17.7215 31.7114C17.9092 31.7114 17.9024 28.1414 18.097 28.1414C18.2778 28.1414 18.2039 31.4564 18.4724 31.4564C18.5794 31.4564 18.5936 30.7859 18.8479 30.1814C18.9691 29.8934 19.2234 30.1814 19.5988 30.1814C19.7866 30.1814 20.0531 31.6965 20.3498 33.2414C20.6163 34.629 20.5287 36.0464 20.7252 36.0464C20.9042 36.0464 20.8677 33.4964 21.1007 33.4964C21.2432 33.4964 21.3338 34.2525 21.4762 35.0264C21.7092 36.2925 21.6639 36.3014 21.8516 37.5764C22.0394 38.8514 22.0635 38.8483 22.2271 40.1264C22.4389 41.7808 22.4449 41.781 22.6026 43.4414C22.8203 45.7335 22.6612 48.0314 22.978 48.0314C23.0367 48.0314 23.2528 47.6767 23.3535 47.2664C23.6283 46.1467 23.4148 46.0382 23.729 44.9714C23.7903 44.7632 24.1737 47.0114 24.4799 47.0114C24.7369 47.0114 24.5995 46.0954 24.8554 45.2264C24.975 44.8204 25.1694 44.4614 25.2309 44.4614C25.5449 44.4614 25.3418 46.6403 25.6063 48.7964C25.7172 49.7003 25.7941 50.5814 25.9818 50.5814C26.1696 50.5814 26.1816 49.6913 26.3573 48.7964C26.5571 47.7788 26.6161 47.7858 26.7327 46.7564C26.9916 44.4708 26.8833 42.1664 27.1082 42.1664C27.2588 42.1664 27.2792 45.2264 27.4837 45.2264C27.6547 45.2264 27.7084 43.9559 27.8591 42.6764C28.0839 40.7684 27.9123 40.7123 28.2346 38.8514C28.2878 38.5448 28.6447 36.5564 28.9856 36.5564C29.2079 36.5564 29.2568 37.3074 29.361 38.0864C29.6322 40.1124 29.453 40.1447 29.7365 42.1664C29.8285 42.8222 29.8577 42.8369 30.112 43.4414C30.2332 43.7294 30.589 40.1264 30.8629 40.1264C31.1522 40.1264 30.9192 43.6964 31.2384 43.6964C31.2947 43.6964 31.706 39.6164 31.9893 39.6164C32.2692 39.6164 32.1771 43.6964 32.3648 43.6964C32.5525 43.6964 32.5635 41.6574 32.7402 39.6164C32.9389 37.3224 32.7989 37.2858 33.1157 35.0264C33.1744 34.6083 33.4148 34.6765 33.4912 34.2614C33.7903 32.6365 33.6922 32.6053 33.8667 30.9464C34.0677 29.0353 33.9758 27.1214 34.2421 27.1214C34.3513 27.1214 34.5084 28.6514 34.6176 28.6514C34.8839 28.6514 34.7683 26.7344 34.9931 24.8264C35.1438 23.5469 35.1487 22.2764 35.3685 22.2764C35.5241 22.2764 35.6044 23.1609 35.744 24.0614C35.9799 25.5834 35.915 25.5937 36.1195 27.1214C36.2905 28.3987 36.2751 29.6714 36.4949 29.6714C36.6506 29.6714 36.7639 28.7907 36.8704 27.8864C37.1394 25.6032 36.987 23.2964 37.2459 23.2964C37.3625 23.2964 37.4539 25.3364 37.6214 25.3364C37.8294 25.3364 37.6691 22.7864 37.9968 22.7864C38.0446 22.7864 38.5353 23.7684 38.7478 24.8264C39.0985 26.5734 38.9479 28.3964 39.1232 28.3964C39.3234 28.3964 39.2682 26.3513 39.4987 24.3164C39.6437 23.0363 39.6952 23.0426 39.8742 21.7664C40.0707 20.3651 40.0085 20.3538 40.2496 18.9614C40.3839 18.1863 40.4511 17.4314 40.6251 17.4314C40.8266 17.4314 40.8849 18.313 41.0006 19.2164C41.2604 21.2455 41.1365 23.2964 41.3761 23.2964C41.512 23.2964 44.6038 1.08117 45.1038 0.581173C45.6038 0.0811726 45.7828 2.0051 45.9793 3.4064C46.1583 4.6826 46.0534 4.7282 46.3548 5.9564" stroke="var(--stroke-0, white)" stroke-linejoin="bevel"/>
</svg>
